PathFileType	4	(X/Y/Z)	./resultDataOpenSim/trcMotMarkerGrf/sub09/qtm-14-05.trc
DataRate	CameraRate	NumFrames	NumMarkers	Units	OrigDataRate	OrigDataStartFrame	OrigNumFrames
250.000000	250.000000	7	24	m	250.000000	243	485
Frame#	Time	L.Toe.Tip			R.Toe.Tip			L.Ankle.Lat			R.Ankle.Lat			L.Ankle.Med			R.Ankle.Med			L.Heel			R.Heel			L.Knee.Lat			R.Knee.Lat			L.Knee.Med			R.Knee.Med			L.Thigh.Upper			R.Thigh.Upper			L.ASIS			R.ASIS			V.Sacral			L.Acromium			R.Acromium			C7			L.Elbow			R.Elbow			L.Wrist.Lat			R.Wrist.Lat
		X1	Y1	Z1	X2	Y2	Z2	X3	Y3	Z3	X4	Y4	Z4	X5	Y5	Z5	X6	Y6	Z6	X7	Y7	Z7	X8	Y8	Z8	X9	Y9	Z9	X10	Y10	Z10	X11	Y11	Z11	X12	Y12	Z12	X13	Y13	Z13	X14	Y14	Z14	X15	Y15	Z15	X16	Y16	Z16	X17	Y17	Z17	X18	Y18	Z18	X19	Y19	Z19	X20	Y20	Z20	X21	Y21	Z21	X22	Y22	Z22	X23	Y23	Z23	X24	Y24	Z24

243	0.968	0.13968623	-0.034686838	0.03554466	0.47851833	0.11116561	0.1385464	0.0014410271	0.02743267	-0.019124432	0.33529188	0.13816962	0.16295029	0.022671459	0.047782349	0.076248762	0.35596007	0.16799423	0.068671503	-0.074406775	0.010437127	0.023658892	0.26724744	0.11687265	0.1115519	0.13606047	0.42118356	-0.080417569	0.49128337	0.55603592	0.18916996	0.13607372	0.42617348	0.044827196	0.48785592	0.54294447	0.064029154	0.19240108	0.84118891	-0.13801591	0.222508	0.85650578	0.23262331	0.29116774	0.92142869	-0.084237843	0.29457635	0.93617511	0.15493786	0.12867336	0.99037467	0.036383591	0.32836818	1.3724471	-0.12384309	0.26787756	1.3947041	0.2004702	0.23103834	1.4362253	0.025047344	0.22138979	1.0125464	-0.19575506	0.081506737	1.0848787	0.27097051	0.43758963	0.84881119	-0.1925371	0.15921929	0.83364679	0.33981043
244	0.972	0.13984921	-0.034670953	0.035488364	0.49961611	0.11113645	0.13706226	0.0018144882	0.028579587	-0.01893962	0.35547068	0.1338489	0.16155221	0.023488014	0.04878501	0.076369786	0.37530034	0.16454454	0.067399968	-0.073854275	0.012061822	0.024019399	0.28825086	0.1107189	0.1100587	0.13694236	0.42218669	-0.080504872	0.49913458	0.5574576	0.18871334	0.13844826	0.42688035	0.04441619	0.49522576	0.54385845	0.063609423	0.19739967	0.84154811	-0.13791492	0.22934335	0.85692722	0.2326742	0.29701059	0.92127705	-0.084696978	0.30122794	0.93625923	0.15454417	0.1347813	0.99068187	0.035633814	0.33477094	1.3724512	-0.12411344	0.2754508	1.3946245	0.20040055	0.23795003	1.4362396	0.025086109	0.22882893	1.012047	-0.19575343	0.088275849	1.085732	0.27097749	0.44688781	0.85078631	-0.19176291	0.16367781	0.83402268	0.34071031
245	0.976	0.14001121	-0.03466718	0.035455103	0.52064802	0.11115926	0.13567036	0.0021932854	0.029751109	-0.018736169	0.37561469	0.12976429	0.16013378	0.024324582	0.0497998	0.0765125	0.39475474	0.16121197	0.066063769	-0.073293062	0.013707069	0.02443744	0.30933532	0.10483976	0.10846239	0.13791769	0.42319217	-0.080610554	0.50671777	0.5585825	0.18826057	0.14089859	0.4275911	0.043990819	0.50244125	0.54453762	0.063273476	0.20245977	0.84188373	-0.13779512	0.23613703	0.85727409	0.23273431	0.30289718	0.92108473	-0.085125457	0.30788873	0.93626612	0.1541869	0.14084639	0.99110005	0.033884266	0.34118726	1.372413	-0.12438337	0.28304321	1.3944775	0.20031897	0.24486526	1.4361983	0.025105658	0.23633623	1.0115115	-0.19579735	0.095077247	1.0864888	0.270937	0.45611767	0.85272887	-0.19098563	0.16822764	0.83435047	0.34159521
246	0.98	0.14017339	-0.034675671	0.035445082	0.54161383	0.11124466	0.13438449	0.0025786909	0.030954956	-0.018523058	0.39576602	0.12589379	0.15867199	0.025186089	0.050828267	0.076674553	0.41433543	0.1580172	0.064649472	-0.072715994	0.015371877	0.024921927	0.33049027	0.099236817	0.10674811	0.13898325	0.42420067	-0.080730142	0.51405083	0.55944594	0.18780095	0.14302597	0.42847721	0.043590716	0.50951807	0.54497864	0.063018395	0.20744392	0.84216543	-0.13763225	0.2428921	0.85754195	0.23281214	0.30878811	0.92083051	-0.085529139	0.31455783	0.93619572	0.15386447	0.14692329	0.99151449	0.031873753	0.34761989	1.3723334	-0.12464349	0.29063222	1.3942726	0.20022751	0.25177751	1.4360966	0.025116434	0.24374869	1.01092	-0.19577786	0.10195218	1.0871496	0.27093665	0.46527956	0.85463996	-0.19020382	0.17285186	0.83461873	0.34245527
247	0.984	0.14033576	-0.034685917	0.035454893	0.56247297	0.11143754	0.13323542	0.002965549	0.032194159	-0.01826726	0.4159364	0.12222682	0.15714119	0.026077025	0.051867967	0.076858339	0.43402111	0.15499068	0.063166391	-0.07211831	0.017050669	0.025473406	0.3517083	0.093904235	0.10490448	0.14010804	0.42520805	-0.080851318	0.52117853	0.56009397	0.1873443	0.14442533	0.42961217	0.043351345	0.51653035	0.54518085	0.062797012	0.21231406	0.84235652	-0.13744888	0.24960183	0.85772149	0.23291076	0.31467303	0.92050291	-0.085903956	0.32123995	0.93604679	0.15357398	0.1531355	0.99162409	0.031249277	0.35407262	1.3722109	-0.12489213	0.29819009	1.3940236	0.20013551	0.25869233	1.4359257	0.0251408	0.25100963	1.0102777	-0.19565909	0.10896668	1.0877175	0.27109181	0.47437832	0.85651971	-0.18941532	0.177527	0.83480915	0.34327105
248	0.988	0.14049991	-0.034683968	0.035473134	0.58317402	0.1117978	0.13225306	0.003344097	0.033454421	-0.01791151	0.43609474	0.11878507	0.15552807	0.027000796	0.052911594	0.077064739	0.45376746	0.15216092	0.06164239	-0.071504383	0.018735585	0.026079199	0.37298211	0.088834872	0.10291933	0.14127588	0.4262034	-0.080972206	0.52814466	0.56054464	0.18691853	0.14531969	0.43082615	0.043280837	0.52357878	0.54515244	0.062540947	0.21713132	0.84241801	-0.13727047	0.25625785	0.85780249	0.23302791	0.32058525	0.92010145	-0.086228312	0.32794517	0.93581439	0.15331342	0.15957552	0.99128266	0.03270878	0.36054677	1.3720413	-0.12513663	0.30571428	1.3937305	0.20004768	0.26561853	1.4356827	0.025185671	0.25817856	1.0096014	-0.1954725	0.11612817	1.0881934	0.27141472	0.48341734	0.85836624	-0.18861932	0.18222499	0.83490472	0.34402125
249	0.992	0.14066676	-0.034666635	0.035487271	0.60369812	0.1123645	0.13145138	0.0037197376	0.034699213	-0.017448552	0.45619267	0.11559285	0.15382873	0.027965617	0.053946911	0.077283755	0.47352468	0.14954364	0.060109628	-0.070879121	0.02041985	0.026721696	0.39430113	0.084025166	0.10078743	0.14249638	0.42717361	-0.081099523	0.53497	0.56078375	0.18655074	0.14639004	0.4318269	0.043265274	0.5306995	0.54491093	0.062228997	0.22194845	0.84233375	-0.13707253	0.26287361	0.85778696	0.23316895	0.32657807	0.9196339	-0.086475061	0.33468324	0.93549596	0.15308083	0.16617997	0.9907076	0.034983083	0.36704545	1.3718215	-0.12538204	0.31322715	1.3933807	0.19996174	0.27256126	1.4353809	0.02523282	0.26532332	1.0088983	-0.19525897	0.12332461	1.0885843	0.27176135	0.49239457	0.8601766	-0.18781942	0.18691723	0.83490053	0.34469275
